# xmcd
#
# Track frame offsets:
#	150
#	9220
#	19385
#	28750
#	39310
#	48891
#	59406
#	70606
#	81295
#	94491
#	104766
#	116470
#	128476
#	138834
#	150104
#	160021
#	170066
#	179690
#	189527
#	200361
#
# Disc length: 2790 seconds
#
# Revision: 0
# Processed by: cddbd v1.5.2PL0 Copyright (c) Steve Scherf et al.
# Submitted via: EZCDAudioConverter 2.4.0.1
#
DISCID=040ae414
DTITLE=Brenda Lee - Little Miss Dynamite [Back Biter]
DYEAR=2001
DGENRE=Country
TTITLE0=Dynamite
TTITLE1=Sweet Nothin's
TTITLE2=Love You 'Till I Die
TTITLE3=Rock the Bop
TTITLE4=Ring-A-My-Phone
TTITLE5=Rock-a-Bye Baby Blues
TTITLE6=Bill Bailey, Won't You Please Come Home
TTITLE7=Wee Wee Willies
TTITLE8=Weep No More My Baby
TTITLE9=Let's Jump the Broomstick
TTITLE10=Jambalaya (On the Bayou)
TTITLE11=(If I'm Dreaming) Just Let Me Dream
TTITLE12=My Baby Likes Western Guys
TTITLE13=That's All You Gotta Do
TTITLE14=Dum Dum
TTITLE15=Do I Worry (Yes I Do)
TTITLE16=Kansas City
TTITLE17=The Big Chance
TTITLE18=Bigelow 6-200
TTITLE19=Baby Face
EXTD=
EXTT0=
EXTT1=
EXTT2=
EXTT3=
EXTT4=
EXTT5=
EXTT6=
EXTT7=
EXTT8=
EXTT9=
EXTT10=
EXTT11=
EXTT12=
EXTT13=
EXTT14=
EXTT15=
EXTT16=
EXTT17=
EXTT18=
EXTT19=
PLAYORDER=
